<?xml version="1.0" encoding="iso-8859-1"?>
<!-- Generator: Adobe Illustrator 19.0.0, SVG Export Plug-In . SVG Version: 6.00 Build 0)  -->
<svg xmlns="http://www.w3.org/2000/svg" xmlns:xlink="http://www.w3.org/1999/xlink" version="1.1" id="Capa_1" x="0px" y="0px" viewBox="0 0 496 496" style="enable-background:new 0 0 496 496;" xml:space="preserve" width="512px" height="512px">
<g>
	<g>
		<g>
			<rect x="176" y="400" width="16" height="16" fill="#7d644b"/>
			<path d="M336,328v-48h-16v48c0,39.696-32.296,72-72,72h-40v16h40C296.52,416,336,376.52,336,328z" fill="#7d644b"/>
			<path d="M272,480H96v-16H80v16c0,8.824,7.176,16,16,16h176c8.824,0,16-7.176,16-16v-16h-16V480z" fill="#7d644b"/>
			<path d="M116.424,129.312c7.144-4.84,11.576-12.856,11.576-21.768c0-3.368-0.632-6.664-1.88-9.808l-10.064-25.144     C112.032,62.512,102.408,56,91.544,56c-3.384,0-6.688,0.64-9.808,1.888L16.584,83.944C6.512,87.976,0,97.6,0,108.456     c0,3.368,0.632,6.664,1.88,9.808l10.064,25.144C15.968,153.488,25.592,160,36.456,160c2.36,0,4.656-0.424,6.904-1.032L73.488,240     H0v88c0,66.168,53.832,120,120,120h128c66.168,0,120-53.832,120-120v-88H172.896L116.424,129.312z M40.312,143.264     c-5.152,2.064-11.424-0.592-13.504-5.8l-10.064-25.136c-0.496-1.24-0.744-2.536-0.744-3.872c0-4.28,2.56-8.064,6.528-9.656     l65.16-26.064C88.912,72.248,90.208,72,91.544,72c4.272,0,8.064,2.568,9.648,6.536l10.064,25.136     c0.496,1.24,0.744,2.536,0.744,3.872c0,4.28-2.56,8.064-6.528,9.656L40.312,143.264z M58.32,153.288l43.504-17.4L154.936,240     H90.56L58.32,153.288z M352,328c0,57.344-46.656,104-104,104H120c-57.344,0-104-46.656-104-104v-72h336V328z" fill="#7d644b"/>
			<path d="M496,112c0-15.12-7.312-29.336-19.416-38.336c1.512-10.104-0.176-20.36-4.944-29.416l-14.16,7.456     c3.232,6.152,4.336,13.168,3.2,20.072l-51.096,21.032c-1.8-2.384-3.912-4.512-6.296-6.32l21.344-51.232     c7.016-1.032,14.248,0.224,20.352,3.64l7.816-13.96c-9.152-5.12-19.992-7.032-30.456-5.504C413.344,7.32,399.128,0,384,0     s-29.344,7.32-38.352,19.424c-14.904-2.216-30.144,2.68-40.84,13.384c-10.696,10.696-15.576,25.92-13.384,40.848     C279.312,82.656,272,96.872,272,112s7.312,29.344,19.424,38.344c-1.528,10.472,0.392,21.304,5.504,30.456l13.968-7.816     c-3.488-6.216-4.728-13.624-3.576-20.768l51.088-21.032c1.8,2.384,3.92,4.512,6.296,6.32l-21.344,51.232     c-7.008,1.024-14.248-0.224-20.352-3.64l-7.816,13.96c9.16,5.128,19.992,7.04,30.456,5.504C354.656,216.68,368.872,224,384,224     s29.344-7.32,38.352-19.424c14.888,2.208,30.152-2.68,40.84-13.384c10.696-10.696,15.576-25.92,13.384-40.848     C488.688,141.344,496,127.128,496,112z M384,16c10.184,0,19.784,5.032,25.776,13.336l-21.24,50.992     c-1.48-0.216-3-0.328-4.536-0.328c-1.496,0-2.96,0.104-4.408,0.304l-21.128-51.312C364.488,20.896,373.952,16,384,16z M400,112     c0,8.824-7.176,16-16,16c-8.824,0-16-7.176-16-16c0-8.824,7.176-16,16-16C392.824,96,400,103.176,400,112z M352.304,116.4     l-51.312,21.128C292.888,131.512,288,122.048,288,112c0-10.192,5.032-19.784,13.336-25.776l50.984,21.248     c-0.208,1.48-0.32,2.992-0.32,4.528C352,113.496,352.104,114.968,352.304,116.4z M358.488,92.704L307.264,71.36     c-1.488-9.976,1.752-20.128,8.856-27.24c7.208-7.208,17.584-10.424,27.656-8.8l21.04,51.088     C362.424,88.2,360.288,90.328,358.488,92.704z M384,208c-10.184,0-19.784-5.032-25.776-13.336l21.24-50.992     c2.904,0.408,6.008,0.424,8.928,0.016L409.52,195C403.512,203.104,394.048,208,384,208z M451.88,179.88     c-7.208,7.208-17.576,10.44-27.656,8.8l-21.04-51.088c2.392-1.792,4.512-3.912,6.32-6.296l51.232,21.344     C462.224,162.624,458.992,172.776,451.88,179.88z M466.664,137.776l-50.984-21.24c0.208-1.48,0.32-3,0.32-4.536     c0-1.496-0.104-2.968-0.304-4.4l51.312-21.128C475.112,92.488,480,101.952,480,112C480,122.192,474.968,131.784,466.664,137.776z     " fill="#7d644b"/>
		</g>
	</g>
</g>
<g>
</g>
<g>
</g>
<g>
</g>
<g>
</g>
<g>
</g>
<g>
</g>
<g>
</g>
<g>
</g>
<g>
</g>
<g>
</g>
<g>
</g>
<g>
</g>
<g>
</g>
<g>
</g>
<g>
</g>
</svg>
